<svg width="30" height="31" viewBox="0 0 30 31" fill="none" xmlns="http://www.w3.org/2000/svg">
<g clip-path="url(#clip0)">
<path d="M21.875 30.5C21.7438 30.5 21.6125 30.4587 21.5013 30.375C21.185 30.14 13.75 24.5375 13.75 20.0387C13.75 17.5362 15.785 15.5 18.2875 15.5C19.7125 15.5 21.0288 16.1637 21.875 17.2537C22.72 16.1637 24.0363 15.5 25.4625 15.5C27.965 15.5 30 17.5362 30 20.0387C30 24.5387 22.565 30.14 22.2488 30.3762C22.1375 30.4587 22.0063 30.5 21.875 30.5V30.5ZM18.2875 16.75C16.475 16.75 15 18.2262 15 20.0387C15 23.075 19.6538 27.3488 21.875 29.0875C24.095 27.3475 28.75 23.0712 28.75 20.0387C28.75 18.2262 27.275 16.75 25.4625 16.75C24.1513 16.75 22.9688 17.5237 22.4488 18.7212C22.2513 19.1775 21.5 19.1775 21.3025 18.7212C20.7813 17.5237 19.5988 16.75 18.2875 16.75Z" fill="black"/>
<path d="M11.875 25.5H6.25C4.87125 25.5 3.75 24.3788 3.75 23V14.25H1.25C0.54875 14.25 0 13.7013 0 13C0 12.6488 0.1525 12.3013 0.4075 12.0725L12.6988 0.667501C12.9388 0.445001 13.31 0.445001 13.5487 0.667501L17.5 4.33V2.375C17.5 2.03 17.78 1.75 18.125 1.75H21.875C22.22 1.75 22.5 2.03 22.5 2.375V8.965L25.85 12.0788C26.1025 12.3138 26.1175 12.7088 25.8825 12.9625C25.6475 13.215 25.2525 13.2313 24.9988 12.9938L21.4488 9.69375C21.3225 9.5775 21.25 9.41125 21.25 9.2375V3H18.75V5.7625C18.75 6.01125 18.6025 6.23625 18.375 6.335C18.1462 6.43375 17.8812 6.38875 17.7 6.22L13.125 1.9775L1.25 12.995L4.375 13C4.72 13 5 13.28 5 13.625V23C5 23.69 5.56125 24.25 6.25 24.25H11.875C12.22 24.25 12.5 24.53 12.5 24.875C12.5 25.22 12.22 25.5 11.875 25.5Z" fill="black"/>
</g>
<defs>
<clipPath id="clip0">
<rect width="30" height="30" fill="white" transform="translate(0 0.5)"/>
</clipPath>
</defs>
</svg>
